{"glyphs":{":":{"x_min":0,"x_max":369,"ha":369,"o":"m 123 397 q 130 436 163 463 q 195 490 233 490 q 271 490 293 463 q 315 435 308 397 q 300 359 268 332 q 236 305 197 305 q 159 305 137 332 q 115 359 123 397 z m 61 79 q 68 117 101 145 q 133 172 171 172 q 209 172 231 145 q 253 117 246 79 q 238 41 206 13 q 173 -14 135 -14 q 97 -14 75 13 q 53 41 61 79 z"},"$":{"x_min":0,"x_max":696,"ha":696,"o":"m 41 29 l 69 171 l 127 171 q 123 105 155 73 q 187 41 257 41 l 264 41 l 303 239 q 186 266 142 312 q 99 358 114 438 q 131 526 201 576 q 271 627 378 630 l 404 761 l 463 761 l 438 630 q 492 627 540 616 q 588 606 631 587 l 605 454 l 546 454 q 550 511 519 542 q 487 574 427 575 l 392 393 q 518 364 561 316 q 605 267 588 179 q 570 89 499 39 q 427 -11 312 -14 l 287 -146 l 228 -146 l 253 -14 q 200 -13 147 -2 q 94 8 41 29 z m 368 575 q 325 570 297 549 q 269 529 263 499 q 257 465 273 444 q 290 423 335 409 z m 323 41 q 374 46 403 68 q 433 89 440 125 q 447 161 427 185 q 408 208 358 223 z"},"?":{"x_min":0,"x_max":586,"ha":586,"o":"m 112 79 q 119 117 152 145 q 185 172 223 172 q 261 172 283 145 q 305 117 298 79 q 290 41 257 13 q 225 -14 186 -14 q 148 -14 126 13 q 104 41 112 79 z m 132 709 q 196 726 252 734 q 309 742 360 742 q 483 742 538 688 q 594 634 574 534 q 555 436 480 379 q 405 322 284 313 l 265 213 l 197 213 l 225 359 q 297 380 338 425 q 378 470 393 545 q 407 615 384 651 q 361 687 303 687 q 250 687 214 655 q 179 623 162 559 l 103 559 z"},"<":{"x_min":0,"x_max":838,"ha":838,"o":"m 732 478 l 254 313 l 732 149 l 732 32 l 106 259 l 106 369 l 732 595 z"},"'":{"x_min":0,"x_max":306,"ha":306,"o":"m 211 729 l 211 458 l 95 458 l 95 729 z"},"=":{"x_min":0,"x_max":838,"ha":838,"o":"m 106 258 l 732 258 l 732 147 l 106 147 z m 106 480 l 732 480 l 732 369 l 106 369 z"},"a":{"x_min":0,"x_max":648,"ha":648,"o":"m 411 428 q 409 457 381 457 q 316 457 252 379 q 222 343 199 222 q 181 132 194 97 q 207 62 253 62 q 298 62 327 103 q 355 143 373 234 z m 577 503 l 491 59 l 556 60 l 544 0 l 328 0 l 340 66 q 287 -14 191 -14 q 97 -14 55 48 q 13 110 35 219 q 56 328 149 422 q 260 533 409 533 q 555 533 577 503 z"},"L":{"x_min":0,"x_max":703,"ha":703,"o":"m -23 0 l -12 59 l 81 59 l 200 670 l 107 670 l 118 729 l 493 729 l 482 670 l 388 670 l 271 67 l 558 67 l 580 182 l 646 182 l 611 0 z"},"3":{"x_min":0,"x_max":696,"ha":696,"o":"m 153 708 q 221 725 283 734 q 345 742 403 742 q 535 742 596 695 q 657 648 640 560 q 627 494 579 453 q 530 412 450 398 q 542 383 579 333 q 616 283 599 197 q 580 95 488 40 q 396 -14 243 -14 q 186 -14 126 -4 q 67 5 4 25 l 35 185 l 94 185 q 86 116 117 79 q 148 43 215 43 q 290 43 338 84 q 387 125 401 201 q 417 280 383 323 q 349 366 271 366 l 239 366 l 250 425 l 276 425 q 348 425 390 458 q 433 491 446 557 q 458 619 430 652 q 403 685 339 685 q 282 685 242 654 q 202 622 184 562 l 125 562 z"},";":{"x_min":0,"x_max":369,"ha":369,"o":"m 138 397 q 145 436 177 463 q 210 490 248 490 q 286 490 308 463 q 330 435 323 397 q 315 359 283 332 q 250 305 212 305 q 173 305 152 332 q 130 359 138 397 z m -23 -92 q 36 -51 69 -1 q 103 50 116 117 l 125 160 l 264 160 q 243 50 182 -29 q 121 -108 17 -161 z"},"J":{"x_min":0,"x_max":473,"ha":473,"o":"m -157 -175 l -135 -60 l -72 -60 q -78 -106 -63 -127 q -48 -149 -11 -149 q 36 -149 62 -113 q 88 -76 107 24 l 233 670 l 127 670 l 139 729 l 527 729 l 515 670 l 422 670 l 295 20 q 272 -99 202 -153 q 131 -208 1 -208 q -40 -208 -79 -200 q -118 -191 -157 -175 z"},"V":{"x_min":0,"x_max":776,"ha":776,"o":"m 861 729 l 850 670 l 789 670 l 383 0 l 267 0 l 123 670 l 54 670 l 65 729 l 407 729 l 396 670 l 325 670 l 427 187 l 720 670 l 633 670 l 644 729 z"},"\"":{"x_min":0,"x_max":521,"ha":521,"o":"m 211 729 l 211 458 l 95 458 l 95 729 z m 426 729 l 426 458 l 310 458 l 310 729 z"},"7":{"x_min":0,"x_max":696,"ha":696,"o":"m 660 605 l 241 0 l 142 0 l 550 591 l 190 591 l 171 492 l 104 492 l 150 729 l 684 729 z"},"S":{"x_min":0,"x_max":722,"ha":722,"o":"m 13 35 l 47 208 l 109 208 q 107 126 152 85 q 197 45 290 45 q 366 45 411 74 q 456 103 467 158 q 476 202 453 227 q 431 251 351 272 l 247 299 q 146 326 112 375 q 78 423 95 513 q 116 622 200 682 q 284 742 414 742 q 478 742 544 731 q 611 721 681 699 l 650 538 l 588 538 q 588 613 547 648 q 506 683 418 683 q 346 683 304 658 q 262 633 252 583 q 244 538 264 514 q 285 490 379 465 l 483 438 q 580 413 615 359 q 651 305 632 211 q 611 101 523 43 q 436 -14 288 -14 q 217 -14 149 -2 q 81 10 13 35 z"},"}":{"x_min":0,"x_max":643,"ha":643,"o":"m 13 -104 l 62 -104 q 116 -104 141 -81 q 166 -58 178 8 l 204 140 q 219 217 250 250 q 280 282 347 299 q 287 313 269 347 q 250 380 266 457 l 292 589 q 304 655 288 678 q 272 701 218 701 l 169 701 l 181 760 l 252 760 q 367 760 405 748 q 442 736 461 706 q 472 688 473 661 q 474 635 463 580 l 439 458 q 425 384 446 356 q 466 328 535 328 l 565 328 l 553 269 l 523 269 q 455 269 423 241 q 392 213 377 139 l 354 17 q 343 -38 332 -64 q 320 -91 303 -109 q 272 -139 230 -151 q 188 -163 72 -163 l 1 -163 z"},"Z":{"x_min":0,"x_max":730,"ha":730,"o":"m -33 0 l -20 69 l 530 662 l 181 662 l 160 553 l 93 553 l 127 729 l 760 729 l 747 660 l 202 67 l 570 67 l 589 169 l 656 169 l 624 0 z"},"x":{"x_min":0,"x_max":596,"ha":596,"o":"m 365 331 l 536 519 l 605 519 l 383 275 l 496 59 l 564 59 l 553 0 l 332 0 l 230 196 l 52 0 l -18 0 l 211 253 l 103 460 l 44 460 l 56 519 l 267 519 z"},")":{"x_min":0,"x_max":473,"ha":473,"o":"m -38 -156 l -26 -97 q 60 -50 112 42 q 164 134 196 302 q 229 470 213 562 q 197 654 129 701 l 140 760 q 294 695 353 583 q 411 471 378 302 q 346 133 242 19 q 139 -95 -38 -156 z"},"&":{"x_min":0,"x_max":903,"ha":903,"o":"m 814 0 l 580 0 l 531 64 q 474 25 411 5 q 348 -14 278 -14 q 132 -14 62 48 q 7 96 7 172 q 7 195 12 220 q 27 300 81 356 q 134 413 232 453 q 214 486 207 516 q 203 532 203 548 q 203 561 206 573 q 221 653 297 698 q 373 742 495 742 q 531 742 578 736 q 625 730 683 719 l 653 567 l 590 567 q 590 574 590 581 q 590 631 570 655 q 547 683 495 683 q 446 683 413 660 q 380 636 372 596 q 371 591 371 585 q 371 540 434 462 q 441 453 446 448 l 625 213 q 660 246 685 290 q 710 333 726 388 l 737 447 l 892 447 l 881 388 l 795 388 q 772 317 740 262 q 707 207 662 164 l 743 59 l 826 59 z m 494 112 l 274 399 q 241 366 220 329 q 199 292 191 252 q 187 229 187 208 q 187 155 217 116 q 258 63 338 63 q 376 63 415 75 q 453 87 494 112 z"},"_":{"x_min":0,"x_max":500,"ha":500,"o":"m 500 -143 l 500 -236 l 0 -236 l 0 -143 z"},"v":{"x_min":0,"x_max":581,"ha":581,"o":"m 312 0 l 173 0 l 78 460 l 21 460 l 32 519 l 244 519 l 323 132 q 336 132 415 236 q 486 336 518 460 l 461 460 l 473 520 l 588 519 q 590 397 491 234 q 398 80 312 0 z"},"O":{"x_min":0,"x_max":871,"ha":871,"o":"m 373 45 q 466 45 527 124 q 588 202 619 364 q 650 526 620 604 q 590 683 497 683 q 404 683 343 604 q 282 524 251 364 q 220 204 250 124 q 280 45 373 45 z m 361 -14 q 177 -14 93 86 q 8 187 42 364 q 76 541 201 641 q 325 742 509 742 q 693 742 778 642 q 862 541 828 364 q 794 187 669 86 q 545 -14 361 -14 z"},"(":{"x_min":0,"x_max":473,"ha":473,"o":"m 332 -156 q 179 -95 120 19 q 62 133 94 302 q 127 471 229 583 q 331 695 510 760 l 499 701 q 412 654 360 562 q 309 470 276 302 q 243 134 259 42 q 275 -50 343 -97 z"},"C":{"x_min":0,"x_max":796,"ha":796,"o":"m 715 208 q 664 95 579 41 q 493 -14 367 -14 q 183 -14 95 88 q 8 189 42 364 q 76 539 203 640 q 330 742 515 742 q 580 742 647 727 q 714 711 786 679 l 751 500 l 689 500 q 688 592 647 637 q 605 683 523 683 q 417 683 350 605 q 283 526 251 364 q 219 201 256 123 q 292 45 400 45 q 473 45 527 85 q 581 126 618 208 z"},"W":{"x_min":0,"x_max":1123,"ha":1123,"o":"m 781 0 l 655 0 l 593 531 l 325 0 l 199 0 l 122 670 l 51 670 l 62 729 l 408 729 l 396 670 l 318 670 l 370 222 l 626 729 l 765 729 l 825 214 l 1056 670 l 969 670 l 980 729 l 1206 729 l 1194 670 l 1120 670 z"},"A":{"x_min":0,"x_max":776,"ha":776,"o":"m -78 0 l -67 59 l -7 59 l 397 729 l 514 729 l 659 59 l 728 59 l 717 0 l 375 0 l 387 59 l 458 59 l 427 208 l 153 208 l 63 59 l 150 59 l 139 0 z m 188 267 l 415 267 l 356 546 z"},"f":{"x_min":0,"x_max":430,"ha":430,"o":"m -47 -135 q -8 -135 15 -107 q 38 -79 50 -16 l 143 460 l 65 460 l 77 519 l 154 519 l 167 584 q 183 670 247 715 q 311 760 418 760 q 459 760 498 755 q 537 750 573 741 l 551 630 l 497 630 q 498 637 498 644 q 498 671 485 687 q 471 705 437 705 q 398 705 375 677 q 352 649 340 586 l 327 519 l 457 519 l 446 460 l 315 460 l 223 -14 q 203 -116 143 -146 q 48 -190 -59 -190 q -53 -163 -47 -135 z"},"Q":{"x_min":0,"x_max":871,"ha":871,"o":"m 376 -14 q 192 -11 109 88 q 50 159 50 268 q 50 312 60 364 q 94 541 219 641 q 343 742 526 742 q 710 742 795 642 q 856 570 856 459 q 856 415 846 364 q 815 208 716 112 q 617 15 464 -8 q 485 -36 520 -48 q 600 -76 666 -76 l 760 -76 l 737 -196 l 653 -196 q 530 -196 454 -140 q 399 -100 376 -14 z m 391 45 q 484 45 545 124 q 605 202 637 364 q 653 447 653 508 q 653 566 638 604 q 608 683 515 683 q 422 683 361 604 q 300 524 269 364 q 253 283 253 222 q 253 164 268 124 q 298 45 391 45 z"},"w":{"x_min":0,"x_max":861,"ha":861,"o":"m 643 146 q 647 150 716 235 q 786 325 813 460 l 745 459 l 757 519 l 890 519 q 862 333 801 237 q 706 88 613 0 l 494 0 l 447 325 l 273 0 l 155 0 l 87 460 l 30 460 l 42 519 l 254 519 l 304 179 l 486 519 l 589 519 z"},"-":{"x_min":0,"x_max":415,"ha":415,"o":"m 67 334 l 374 334 l 348 202 l 42 202 z"},"E":{"x_min":0,"x_max":762,"ha":762,"o":"m -23 0 l -12 59 l 81 59 l 200 670 l 107 670 l 118 729 l 773 729 l 740 557 l 673 557 l 693 662 l 386 662 l 341 428 l 532 428 l 550 521 l 617 521 l 568 269 l 501 269 l 519 362 l 328 362 l 271 67 l 587 67 l 607 172 l 674 172 l 641 0 z"},"s":{"x_min":0,"x_max":563,"ha":563,"o":"m 27 160 l 83 160 q 82 153 82 146 q 82 98 111 70 q 140 41 198 41 q 312 41 325 112 q 327 121 327 135 q 327 148 315 163 q 302 177 253 190 l 186 208 q 109 228 84 260 q 60 292 60 331 q 60 347 63 366 q 80 451 147 492 q 213 533 320 533 q 426 533 542 502 l 517 371 l 461 371 q 463 380 463 389 q 463 478 353 478 q 242 478 229 412 q 228 404 228 393 q 228 361 288 345 l 355 327 q 452 301 479 269 q 506 236 506 194 q 506 177 502 157 q 485 69 414 28 q 343 -14 211 -14 q 115 -14 0 15 z"},">":{"x_min":0,"x_max":838,"ha":838,"o":"m 106 478 l 106 595 l 732 369 l 732 259 l 106 32 l 106 149 l 584 313 z"},"l":{"x_min":0,"x_max":380,"ha":380,"o":"m 218 59 l 292 59 l 281 0 l 34 0 l 170 701 l 97 701 l 108 760 l 354 760 z"},"8":{"x_min":0,"x_max":696,"ha":696,"o":"m 470 388 q 554 374 589 324 q 625 274 609 194 q 589 93 503 40 q 417 -14 273 -14 q 130 -14 65 40 q -1 93 19 194 q 34 274 89 324 q 145 374 234 388 q 161 406 130 447 q 100 488 113 552 q 131 645 210 693 q 289 742 421 742 q 553 742 613 693 q 673 645 655 552 q 642 488 596 447 q 550 406 470 388 z m 465 550 q 480 627 468 656 q 455 685 410 685 q 364 685 340 656 q 316 627 301 550 q 286 473 299 445 q 312 416 357 416 q 403 416 427 445 q 450 473 465 550 z m 417 202 q 434 292 418 325 q 402 359 346 359 q 290 359 261 325 q 232 292 215 202 q 197 112 213 77 q 229 43 285 43 q 340 43 370 77 q 399 112 417 202 z"},"\\":{"x_min":0,"x_max":365,"ha":365,"o":"m 188 729 l 285 -93 l 177 -93 l 80 729 z"},"e":{"x_min":0,"x_max":636,"ha":636,"o":"m 420 406 q 420 478 359 478 q 313 478 286 434 q 258 391 233 253 q 233 253 244 253 q 394 253 417 372 q 420 391 420 406 z m 222 195 q 219 179 219 144 q 219 41 319 41 q 375 41 416 71 q 457 101 477 157 l 558 157 q 520 69 449 27 q 379 -14 267 -14 q 132 -14 74 57 q 33 106 33 185 q 33 219 41 258 q 66 389 154 461 q 242 533 371 533 q 464 533 529 497 q 593 460 593 395 q 593 381 590 367 q 560 209 222 195 z"},"b":{"x_min":0,"x_max":699,"ha":699,"o":"m 161 701 l 87 701 l 98 760 l 345 760 l 286 453 q 315 494 356 513 q 397 533 452 533 q 563 533 612 460 q 646 412 646 339 q 646 302 637 260 q 612 132 534 59 q 457 -14 346 -14 q 291 -14 258 6 q 225 25 210 66 l 198 0 l 25 0 z m 243 234 q 233 185 233 151 q 233 122 241 103 q 256 62 308 62 q 361 62 391 105 q 421 148 443 260 q 457 329 457 372 q 457 398 451 414 q 438 457 385 457 q 333 457 302 417 q 271 376 253 285 z"},"%":{"x_min":0,"x_max":950,"ha":950,"o":"m 280 693 q 249 693 228 659 q 208 625 192 544 q 176 462 183 428 q 190 394 222 394 q 253 394 274 428 q 294 462 310 544 q 326 625 319 659 q 312 693 280 693 z m 290 742 q 383 742 422 691 q 462 640 443 544 q 424 448 365 396 q 306 345 212 345 q 120 345 80 396 q 40 448 59 544 q 78 640 137 691 q 197 742 290 742 z m 735 742 l 819 742 l 215 -14 l 131 -14 z m 737 383 q 831 383 870 332 q 910 281 891 185 q 872 89 813 37 q 753 -14 660 -14 q 567 -14 528 37 q 488 89 507 185 q 526 281 585 332 q 645 383 737 383 z m 640 185 q 624 104 631 69 q 639 35 670 35 q 702 35 722 69 q 742 104 758 185 q 774 266 767 300 q 760 334 728 334 q 696 334 676 300 q 656 266 640 185 z"},"m":{"x_min":0,"x_max":1058,"ha":1058,"o":"m 640 434 q 686 486 732 510 q 779 533 835 533 q 924 533 959 482 q 980 451 980 398 q 980 367 973 330 l 920 59 l 995 59 l 983 0 l 736 0 l 795 304 q 808 368 808 401 q 808 418 804 427 q 794 452 754 452 q 708 452 676 417 q 644 381 631 316 l 569 0 l 396 0 l 456 304 q 468 367 468 400 q 468 418 464 427 q 454 452 414 452 q 368 452 335 417 q 303 381 291 316 l 229 0 l 56 0 l 146 460 l 72 460 l 83 519 l 330 519 l 315 446 q 354 491 398 512 q 441 533 495 533 q 558 533 593 509 q 628 485 640 434 z"},"#":{"x_min":0,"x_max":838,"ha":838,"o":"m 500 426 l 371 426 l 337 292 l 466 292 z m 445 718 l 398 530 l 527 530 l 574 718 l 682 718 l 635 530 l 770 530 l 770 426 l 609 426 l 575 292 l 714 292 l 714 187 l 550 187 l 503 0 l 395 0 l 442 187 l 313 187 l 266 0 l 157 0 l 204 187 l 68 187 l 68 292 l 228 292 l 262 426 l 124 426 l 124 530 l 289 530 l 336 718 z"},",":{"x_min":0,"x_max":348,"ha":348,"o":"m -4 -96 q 55 -55 88 -4 q 122 46 135 114 l 144 156 l 283 156 l 282 152 q 261 44 200 -34 q 140 -112 36 -165 z"},"n":{"x_min":0,"x_max":727,"ha":727,"o":"m 56 0 l 146 460 l 72 460 l 83 519 l 330 519 l 315 446 q 356 492 400 513 q 444 533 505 533 q 592 533 627 481 q 649 449 649 396 q 649 366 642 330 l 589 59 l 664 59 l 652 0 l 405 0 l 470 335 q 477 369 477 393 q 477 414 471 427 q 459 452 418 452 q 366 452 334 414 q 302 375 286 292 l 229 0 z"},"h":{"x_min":0,"x_max":727,"ha":727,"o":"m 34 0 l 170 701 l 93 701 l 104 760 l 354 760 l 293 446 q 334 492 378 513 q 422 533 483 533 q 570 533 605 481 q 627 449 627 396 q 627 366 620 330 l 567 59 l 642 59 l 630 0 l 383 0 l 448 335 q 455 369 455 393 q 455 414 449 427 q 438 452 396 452 q 344 452 312 414 q 280 375 264 292 l 207 0 z"},"z":{"x_min":0,"x_max":568,"ha":568,"o":"m 574 461 l 232 95 q 248 89 262 81 q 324 48 363 48 q 421 48 509 119 l 494 42 q 408 -41 330 -41 q 289 -39 227 -7 q 157 28 129 28 q 102 28 74 17 q 45 6 34 -1 l -15 0 l -3 59 l 337 424 q 322 430 308 438 q 246 471 208 471 q 149 471 61 400 l 76 478 q 163 560 241 560 q 281 558 344 526 q 414 491 441 491 q 468 491 497 502 q 525 513 537 520 l 585 519 z"},"B":{"x_min":0,"x_max":845,"ha":845,"o":"m -23 0 l -12 59 l 81 59 l 200 670 l 107 670 l 118 729 l 550 729 q 684 729 742 684 q 800 639 782 549 q 770 484 716 446 q 663 408 570 398 q 678 388 727 339 q 776 291 761 211 q 740 103 648 51 q 556 0 382 0 z m 340 425 l 404 425 q 488 425 535 455 q 581 486 593 549 q 606 612 572 641 q 539 670 452 670 l 388 670 z m 269 59 l 339 59 q 432 59 484 96 q 537 133 552 211 q 567 289 529 328 q 491 366 399 366 l 329 366 z"},"K":{"x_min":0,"x_max":869,"ha":869,"o":"m -23 0 l -12 59 l 81 59 l 200 670 l 107 670 l 118 729 l 493 729 l 482 670 l 388 670 l 336 404 l 697 670 l 619 670 l 630 729 l 902 729 l 891 670 l 794 670 l 488 445 l 769 59 l 841 59 l 830 0 l 583 0 l 327 354 l 269 59 l 363 59 l 352 0 z"},"R":{"x_min":0,"x_max":831,"ha":831,"o":"m 530 356 q 572 350 597 327 q 623 305 636 262 l 703 59 l 778 59 l 767 0 l 527 0 l 454 220 q 433 289 413 307 q 393 326 351 326 l 321 326 l 269 59 l 363 59 l 352 0 l -23 0 l -12 59 l 81 59 l 200 670 l 107 670 l 118 729 l 534 729 q 661 729 720 678 q 779 627 761 533 q 747 457 689 413 q 631 369 530 356 z m 333 385 l 396 385 q 465 385 509 422 q 553 459 566 528 q 580 597 550 633 q 521 670 452 670 l 388 670 z"},"T":{"x_min":0,"x_max":744,"ha":744,"o":"m 110 0 l 122 59 l 218 59 l 335 662 l 136 662 l 114 547 l 47 547 l 82 729 l 805 729 l 770 547 l 704 547 l 726 662 l 524 662 l 407 59 l 504 59 l 493 0 z"},"P":{"x_min":0,"x_max":752,"ha":752,"o":"m -23 0 l -12 59 l 81 59 l 200 670 l 107 670 l 118 729 l 533 729 q 655 729 715 671 q 776 613 757 516 q 738 418 655 360 q 571 302 450 302 l 316 302 l 269 59 l 387 59 l 375 0 z m 328 361 l 383 361 q 446 361 492 403 q 538 445 552 516 q 565 586 536 628 q 507 670 443 670 l 388 670 z"},"|":{"x_min":0,"x_max":364,"ha":364,"o":"m 234 764 l 234 -236 l 129 -236 l 129 764 z"},"t":{"x_min":0,"x_max":462,"ha":462,"o":"m 124 460 l 49 460 l 60 519 l 135 519 l 167 680 l 339 680 l 308 519 l 452 519 l 441 460 l 297 460 l 235 142 q 227 99 227 77 q 227 63 229 58 q 237 41 265 41 q 296 41 315 62 q 334 83 344 127 l 417 127 q 397 49 353 17 q 309 -14 215 -14 q 108 -14 76 20 q 56 41 56 86 q 56 110 62 142 z"},"M":{"x_min":0,"x_max":1107,"ha":1107,"o":"m -28 0 l -17 59 l 76 59 l 195 670 l 102 670 l 113 729 l 414 729 l 531 261 l 831 729 l 1131 729 l 1120 670 l 1027 670 l 908 59 l 1001 59 l 990 0 l 615 0 l 626 59 l 719 59 l 827 615 l 502 107 l 378 107 l 252 615 l 144 59 l 237 59 l 226 0 z"},"g":{"x_min":0,"x_max":699,"ha":699,"o":"m 482 428 q 479 457 448 457 q 359 457 304 379 q 269 330 248 222 q 230 132 245 97 q 260 62 313 62 q 364 62 396 103 q 427 143 444 234 z m 667 486 l 573 7 q 550 -113 462 -162 q 356 -222 231 -222 q 179 -222 127 -214 q 76 -206 22 -190 l 47 -66 l 102 -66 q 102 -70 102 -74 q 102 -119 128 -142 q 158 -167 221 -167 q 301 -167 341 -129 q 381 -90 400 7 l 412 66 q 352 -14 242 -14 q 133 -14 83 48 q 33 110 54 219 q 80 352 203 447 q 314 533 477 533 q 608 533 667 486 z"},"j":{"x_min":0,"x_max":362,"ha":362,"o":"m 165 666 q 172 706 205 733 q 237 760 277 760 q 315 760 337 732 q 354 712 354 685 q 354 676 352 666 q 344 627 312 600 q 279 573 241 573 q 201 573 179 600 q 163 620 163 647 q 163 656 165 666 z m 145 460 l 71 460 l 83 519 l 329 519 l 216 -61 q 201 -141 136 -181 q 72 -222 -38 -222 q -67 -222 -99 -217 q -132 -212 -166 -203 l -144 -93 l -89 -93 q -91 -108 -91 -120 q -91 -139 -84 -149 q -73 -167 -41 -167 q -5 -167 13 -144 q 32 -121 43 -61 z"},"i":{"x_min":0,"x_max":380,"ha":380,"o":"m 147 666 q 155 706 188 733 q 220 760 260 760 q 298 760 320 732 q 336 712 336 686 q 336 676 334 666 q 327 627 295 600 q 262 573 224 573 q 184 573 162 600 q 146 620 146 647 q 146 656 147 666 z m 218 59 l 292 59 l 281 0 l 34 0 l 124 460 l 50 460 l 61 519 l 308 519 z"},"y":{"x_min":0,"x_max":581,"ha":581,"o":"m 243 -133 l 104 460 l 48 460 l 60 519 l 271 519 l 388 17 q 444 98 481 190 q 519 281 556 459 l 487 459 l 498 519 l 638 519 q 626 457 608 376 q 565 178 511 86 q 368 -153 253 -197 q 188 -222 94 -222 q 48 -222 -19 -201 l 2 -93 l 58 -93 q 56 -105 56 -115 q 56 -148 79 -159 q 89 -164 110 -167 q 122 -168 133 -168 q 188 -168 243 -133 z"},"@":{"x_min":0,"x_max":1000,"ha":1000,"o":"m 618 246 l 625 283 q 637 346 614 385 q 591 423 542 423 q 494 423 456 380 q 418 337 404 265 q 390 193 411 150 q 432 107 480 107 q 530 107 567 145 q 605 183 618 246 z m 592 117 q 564 82 526 63 q 487 45 443 45 q 350 45 308 104 q 266 162 286 265 q 306 368 371 427 q 436 485 529 485 q 573 485 604 466 q 635 448 650 413 l 662 474 l 769 474 l 698 112 q 772 131 821 188 q 870 245 887 331 q 900 401 885 458 q 869 515 823 562 q 786 600 729 621 q 672 641 604 641 q 541 641 482 624 q 423 607 371 573 q 292 521 239 441 q 186 361 167 265 q 152 189 163 122 q 174 55 208 6 q 249 -52 311 -82 q 373 -112 453 -112 q 512 -112 571 -95 q 630 -79 687 -46 l 706 -92 q 635 -133 563 -153 q 492 -174 421 -174 q 327 -174 254 -143 q 181 -112 130 -51 q 81 10 64 91 q 48 171 66 265 q 84 359 132 439 q 180 520 253 581 q 328 643 414 673 q 500 703 600 703 q 687 703 753 679 q 820 656 867 608 q 921 554 940 484 q 958 415 942 330 q 916 195 824 120 q 732 45 594 45 l 579 45 z"},".":{"x_min":0,"x_max":348,"ha":348,"o":"m 81 79 q 88 117 121 145 q 154 172 192 172 q 230 172 252 145 q 274 117 267 79 q 260 41 227 13 q 194 -14 156 -14 q 118 -14 96 13 q 74 41 81 79 z"},"p":{"x_min":0,"x_max":699,"ha":699,"o":"m 294 285 l 284 234 q 274 185 274 151 q 274 122 282 103 q 297 62 349 62 q 402 62 432 105 q 462 148 484 260 q 497 329 497 372 q 497 398 492 414 q 479 457 425 457 q 374 457 343 417 q 312 376 294 285 z m 155 460 l 81 460 l 92 519 l 339 519 l 327 453 q 356 494 397 513 q 438 533 493 533 q 604 533 653 460 q 687 412 687 339 q 687 302 678 260 q 653 132 575 59 q 498 -14 387 -14 q 332 -14 299 6 q 265 25 251 66 l 198 -208 l 25 -208 z"},"X":{"x_min":0,"x_max":776,"ha":776,"o":"m 323 281 l 128 59 l 218 59 l 207 0 l -52 0 l -41 59 l 49 59 l 295 338 l 132 670 l 65 670 l 76 729 l 438 729 l 427 670 l 347 670 l 448 465 l 628 670 l 543 670 l 554 729 l 808 729 l 797 670 l 707 670 l 476 408 l 647 59 l 716 59 l 705 0 l 341 0 l 352 59 l 433 59 z"},"*":{"x_min":0,"x_max":523,"ha":523,"o":"m 501 592 l 325 510 l 501 427 l 453 351 l 293 468 l 306 278 l 217 278 l 230 468 l 70 351 l 22 427 l 198 510 l 22 592 l 70 669 l 230 551 l 217 742 l 306 742 l 293 551 l 453 669 z"},"Y":{"x_min":0,"x_max":714,"ha":714,"o":"m 101 0 l 112 59 l 210 59 l 258 302 l 113 670 l 51 670 l 62 729 l 412 729 l 400 670 l 319 670 l 429 392 l 646 670 l 574 670 l 585 729 l 794 729 l 783 670 l 721 670 l 452 327 l 399 59 l 498 59 l 486 0 z"},"c":{"x_min":0,"x_max":609,"ha":609,"o":"m 545 162 q 509 73 443 30 q 377 -14 279 -14 q 140 -14 78 58 q 34 108 34 189 q 34 222 41 260 q 66 389 155 461 q 245 533 378 533 q 433 533 486 523 q 539 513 592 492 l 564 348 l 509 348 q 510 359 510 370 q 510 419 490 446 q 465 478 410 478 q 337 478 297 429 q 257 380 234 260 q 222 197 222 153 q 222 115 231 92 q 251 41 318 41 q 371 41 408 72 q 446 104 464 162 z"},"!":{"x_min":0,"x_max":439,"ha":439,"o":"m 73 79 q 80 117 113 145 q 145 172 183 172 q 221 172 243 145 q 265 117 258 79 q 250 41 218 13 q 185 -14 147 -14 q 109 -14 87 13 q 65 41 73 79 z m 200 729 l 383 729 l 245 318 l 227 225 l 159 225 l 177 318 z"},"/":{"x_min":0,"x_max":365,"ha":365,"o":"m 337 729 l 446 729 l 28 -93 l -80 -93 z"},"[":{"x_min":0,"x_max":473,"ha":473,"o":"m 211 760 l 488 760 l 477 701 l 373 701 l 223 -73 l 327 -73 l 315 -132 l 39 -132 z"},"r":{"x_min":0,"x_max":527,"ha":527,"o":"m 587 525 l 557 370 l 502 370 q 503 380 503 389 q 503 417 492 432 q 476 452 439 452 q 382 452 340 402 q 297 353 280 264 l 229 0 l 56 0 l 146 460 l 66 460 l 78 519 l 330 519 l 312 427 q 348 481 395 507 q 441 533 502 533 q 517 533 538 531 q 560 529 587 525 z"},"2":{"x_min":0,"x_max":696,"ha":696,"o":"m 167 549 l 108 549 l 139 706 q 202 724 262 733 q 322 742 382 742 q 521 742 588 685 q 654 628 635 527 q 621 455 567 397 q 513 340 376 261 l 147 128 l 492 128 l 509 214 l 576 214 l 534 0 l -5 0 l 19 119 l 141 194 q 297 289 356 356 q 416 423 433 512 q 449 597 423 641 q 396 685 330 685 q 272 685 230 650 q 189 615 167 549 z"},"{":{"x_min":0,"x_max":643,"ha":643,"o":"m 475 -104 l 463 -163 l 391 -163 q 276 -163 238 -151 q 201 -139 182 -109 q 171 -91 170 -64 q 169 -38 180 17 l 204 139 q 218 213 198 241 q 177 269 108 269 l 78 269 l 90 328 l 120 328 q 188 328 220 356 q 251 384 266 458 l 290 580 q 300 635 312 661 q 323 688 340 706 q 371 736 413 748 q 456 760 571 760 l 643 760 l 631 701 l 581 701 q 526 701 502 678 q 478 655 465 589 l 439 457 q 424 379 393 346 q 363 313 297 299 q 358 282 375 250 q 393 218 377 140 l 352 8 q 339 -58 354 -81 q 370 -104 425 -104 z"}," ":{"x_min":0,"x_max":348,"ha":348,"o":""},"I":{"x_min":0,"x_max":468,"ha":468,"o":"m -23 0 l -12 59 l 81 59 l 200 670 l 107 670 l 118 729 l 493 729 l 482 670 l 388 670 l 269 59 l 363 59 l 352 0 z"},"H":{"x_min":0,"x_max":945,"ha":945,"o":"m -23 0 l -12 59 l 81 59 l 200 670 l 107 670 l 118 729 l 493 729 l 482 670 l 388 670 l 340 425 l 630 425 l 678 670 l 585 670 l 596 729 l 971 729 l 960 670 l 866 670 l 747 59 l 841 59 l 830 0 l 455 0 l 466 59 l 559 59 l 617 358 l 327 358 l 269 59 l 363 59 l 352 0 z"},"4":{"x_min":0,"x_max":696,"ha":696,"o":"m 566 0 l 165 0 l 176 59 l 285 59 l 311 192 l 6 192 l 17 248 l 418 742 l 602 742 l 507 255 l 632 255 l 620 192 l 495 192 l 469 59 l 578 59 z m 323 255 l 392 609 l 105 255 z"},"~":{"x_min":0,"x_max":838,"ha":838,"o":"m 732 406 l 732 305 q 687 263 641 243 q 595 223 546 223 q 500 223 425 251 q 417 254 413 256 q 410 257 403 260 q 319 292 272 292 q 234 292 194 274 q 153 257 106 221 l 106 322 q 153 364 198 384 q 243 404 292 404 q 338 404 412 376 q 421 373 425 371 l 432 368 q 517 335 566 335 q 604 335 644 353 q 685 370 732 406 z"},"D":{"x_min":0,"x_max":867,"ha":867,"o":"m 269 59 l 337 59 q 451 59 519 132 q 586 206 617 365 q 647 524 609 597 q 571 670 456 670 l 388 670 z m -23 0 l -12 59 l 81 59 l 200 670 l 107 670 l 118 729 l 492 729 q 688 729 774 635 q 860 542 826 365 q 792 188 669 94 q 546 0 351 0 z"},"^":{"x_min":0,"x_max":838,"ha":838,"o":"m 475 729 l 737 457 l 633 457 l 419 611 l 205 457 l 101 457 l 366 729 z"},"0":{"x_min":0,"x_max":696,"ha":696,"o":"m 450 364 q 492 577 480 631 q 469 685 411 685 q 352 685 320 632 q 288 579 246 364 q 205 149 216 96 q 227 43 286 43 q 344 43 376 96 q 409 149 450 364 z m 274 -14 q 128 -14 70 83 q 11 181 47 364 q 83 547 179 645 q 276 742 422 742 q 567 742 626 645 q 685 547 649 364 q 613 181 517 83 q 420 -14 274 -14 z"},"F":{"x_min":0,"x_max":710,"ha":710,"o":"m -23 0 l -12 59 l 81 59 l 200 670 l 107 670 l 118 729 l 768 729 l 735 557 l 668 557 l 688 662 l 387 662 l 342 428 l 527 428 l 545 521 l 612 521 l 563 269 l 496 269 l 514 362 l 329 362 l 270 59 l 385 59 l 374 0 z"},"`":{"x_min":0,"x_max":500,"ha":500,"o":"m 265 800 l 354 616 l 274 616 l 128 800 z"},"k":{"x_min":0,"x_max":693,"ha":693,"o":"m 207 0 l 34 0 l 170 701 l 97 701 l 108 760 l 354 760 l 260 272 l 506 460 l 444 460 l 455 519 l 596 519 l 584 460 l 427 340 l 591 59 l 647 59 l 636 0 l 445 0 l 303 244 l 246 201 z"},"u":{"x_min":0,"x_max":727,"ha":727,"o":"m 671 519 l 582 59 l 655 59 l 644 0 l 397 0 l 411 73 q 371 27 327 6 q 283 -14 222 -14 q 135 -14 100 37 q 78 70 78 123 q 78 153 85 189 l 138 460 l 63 460 l 75 519 l 322 519 l 263 216 q 251 155 251 122 q 251 103 255 93 q 266 67 309 67 q 361 67 393 105 q 425 144 441 228 l 498 519 z"},"]":{"x_min":0,"x_max":473,"ha":473,"o":"m 435 760 l 262 -132 l -15 -132 l -4 -73 l 100 -73 l 250 701 l 146 701 l 158 760 z"},"U":{"x_min":0,"x_max":872,"ha":872,"o":"m 188 670 l 95 670 l 106 729 l 481 729 l 470 670 l 376 670 l 306 305 q 279 169 311 115 q 343 60 446 60 q 547 60 600 115 q 652 170 679 305 l 750 670 l 657 670 l 668 729 l 922 729 l 911 670 l 817 670 l 745 295 q 712 128 626 57 q 540 -14 370 -14 q 200 -14 141 58 q 83 129 115 296 z"},"o":{"x_min":0,"x_max":667,"ha":667,"o":"m 292 41 q 346 41 377 88 q 409 135 433 260 q 449 341 449 390 q 449 415 444 432 q 432 478 376 478 q 321 478 290 431 q 258 384 234 260 q 218 180 218 132 q 218 105 223 88 q 236 41 292 41 z m 80 59 q 34 111 34 192 q 34 224 41 260 q 66 388 158 461 q 250 533 387 533 q 525 533 588 461 q 634 409 634 328 q 634 296 627 260 q 602 132 510 59 q 418 -14 281 -14 q 144 -14 80 59 z"},"N":{"x_min":0,"x_max":914,"ha":914,"o":"m -26 0 l -15 59 l 78 59 l 197 670 l 104 670 l 115 729 l 343 729 l 683 213 l 772 670 l 679 670 l 690 729 l 945 729 l 934 670 l 841 670 l 710 0 l 583 0 l 238 527 l 147 59 l 240 59 l 229 0 z"},"+":{"x_min":0,"x_max":838,"ha":838,"o":"m 475 627 l 475 370 l 732 370 l 732 258 l 475 258 l 475 1 l 363 1 l 363 258 l 106 258 l 106 370 l 363 370 l 363 627 z"},"G":{"x_min":0,"x_max":854,"ha":854,"o":"m 714 500 q 711 597 668 640 q 625 683 532 683 q 419 683 351 606 q 283 529 251 364 q 219 200 255 122 q 291 45 398 45 q 439 45 476 54 q 513 63 545 82 l 584 282 l 496 282 l 508 341 l 771 341 l 716 61 q 626 23 541 4 q 456 -14 370 -14 q 183 -14 95 87 q 8 188 42 364 q 76 540 203 641 q 330 742 518 742 q 596 742 668 727 q 741 711 811 679 l 776 500 z"},"q":{"x_min":0,"x_max":699,"ha":699,"o":"m 665 486 l 542 -146 l 621 -147 l 609 -207 l 357 -208 l 411 66 q 351 -14 241 -14 q 132 -14 82 48 q 32 110 53 219 q 78 352 202 447 q 312 533 475 533 q 606 533 665 486 z m 481 428 q 478 457 447 457 q 358 457 302 379 q 268 330 247 222 q 229 132 244 97 q 259 62 312 62 q 363 62 394 103 q 425 143 443 234 z"},"d":{"x_min":0,"x_max":699,"ha":699,"o":"m 402 234 l 412 285 q 421 333 421 368 q 421 397 414 417 q 399 457 348 457 q 294 457 264 414 q 234 372 212 260 q 199 191 199 148 q 199 122 204 105 q 217 62 271 62 q 322 62 353 103 q 385 143 402 234 z m 677 760 l 530 0 l 357 0 l 370 66 q 340 25 299 6 q 257 -14 203 -14 q 92 -14 43 59 q 11 108 11 180 q 11 217 19 260 q 44 388 121 460 q 199 533 309 533 q 364 533 397 513 q 431 494 445 453 l 493 701 l 419 701 l 430 760 z"},"1":{"x_min":0,"x_max":696,"ha":696,"o":"m 65 0 l 77 59 l 213 59 l 328 649 l 159 559 l 173 632 l 377 742 l 531 742 l 398 59 l 536 59 l 524 0 z"},"5":{"x_min":0,"x_max":696,"ha":696,"o":"m 636 729 l 611 601 l 221 601 l 190 441 q 227 466 269 479 q 311 491 355 491 q 490 491 555 423 q 620 355 597 238 q 574 119 483 52 q 392 -14 251 -14 q 191 -14 135 -4 q 78 5 18 26 l 48 185 l 107 185 q 96 113 124 78 q 151 43 219 43 q 291 43 334 91 q 378 139 397 238 q 417 335 392 383 q 367 431 298 431 q 261 431 229 416 q 197 400 166 368 l 117 368 l 188 729 z"}}}
